<?xml version="1.0" encoding="UTF-8"?>
<!DOCTYPE svg PUBLIC "-//W3C//DTD SVG 1.1//EN" "http://www.w3.org/Graphics/SVG/1.1/DTD/svg11.dtd">
<!-- Creator: CorelDRAW -->
<svg xmlns="http://www.w3.org/2000/svg" xml:space="preserve" width="1.70666in" height="1.70666in" version="1.1" style="shape-rendering:geometricPrecision; text-rendering:geometricPrecision; image-rendering:optimizeQuality; fill-rule:evenodd; clip-rule:evenodd"
viewBox="0 0 1707 1707"
 xmlns:xlink="http://www.w3.org/1999/xlink">
 <defs>
  <style type="text/css">
   <![CDATA[
    .fil0 {fill:black}
   ]]>
  </style>
 </defs>
 <g id="Layer_x0020_1">
  <metadata id="CorelCorpID_0Corel-Layer"/>
  <g id="_483982072">
   <g>
    <path class="fil0" d="M771 1445l-606 0c-84,0 -152,-68 -152,-151l0 -1143c0,-84 68,-152 152,-152l606 0c84,0 152,68 152,152l0 1143c0,83 -68,151 -152,151zm-606 -1397c-57,0 -103,46 -103,103l0 1143c0,56 46,102 103,102l606 0c57,0 103,-46 103,-102l0 -1143c0,-57 -46,-103 -103,-103l-606 0z"/>
   </g>
   <g>
    <path class="fil0" d="M898 233l-861 0c-14,0 -25,-12 -25,-25 0,-14 11,-25 25,-25l861 0c14,0 25,11 25,25 0,13 -11,25 -25,25z"/>
   </g>
   <g>
    <path class="fil0" d="M199 1105c-2,0 -7,0 -9,-2 -13,-5 -18,-19 -13,-32l268 -626c6,-12 20,-18 32,-12 13,5 18,19 13,32l-269 624c-4,10 -12,16 -22,16z"/>
   </g>
   <g>
    <path class="fil0" d="M737 1105c-10,0 -18,-6 -23,-16l-269 -626c-5,-12 0,-26 13,-32 12,-5 26,0 32,13l269 626c5,12 0,26 -13,32 -4,1 -7,3 -9,3z"/>
   </g>
   <g>
    <path class="fil0" d="M639 878l-343 0c-13,0 -25,-11 -25,-25 0,-14 12,-25 25,-25l343 0c14,0 25,11 25,25 0,14 -12,25 -25,25z"/>
   </g>
   <g>
    <path class="fil0" d="M635 1335l-334 0c-14,0 -25,-11 -25,-25 0,-14 11,-25 25,-25l334 0c14,0 25,11 25,25 0,14 -11,25 -25,25z"/>
   </g>
   <g>
    <path class="fil0" d="M1543 1707l-608 0c-83,0 -150,-68 -150,-150l0 -143c0,-14 11,-25 25,-25 14,0 25,11 25,25l0 143c0,56 47,102 102,102l606 0c57,0 103,-46 103,-102l0 -1144c0,-55 -46,-101 -103,-101l-608 0c-9,0 -19,1 -29,4 -12,4 -26,-3 -30,-15 -5,-13 2,-27 15,-31 15,-5 29,-7 44,-7l608 0c84,0 152,68 152,150l0 1144c-2,82 -68,150 -152,150z"/>
   </g>
   <g>
    <path class="fil0" d="M1670 496l-772 0c-14,0 -25,-11 -25,-25 0,-13 11,-25 25,-25l772 0c14,0 25,12 25,25 0,14 -11,25 -25,25z"/>
   </g>
   <g>
    <path class="fil0" d="M1407 1599l-336 0c-14,0 -25,-11 -25,-25 0,-14 11,-24 25,-24l336 0c14,0 25,12 25,25 0,14 -12,24 -25,24z"/>
   </g>
   <g>
    <path class="fil0" d="M1271 1306l-190 0c-14,0 -25,-11 -25,-25l0 -251c0,-14 11,-25 25,-25l190 0c84,0 150,68 150,150 0,84 -68,151 -150,151zm-166 -49l165 0c55,0 101,-47 101,-101 0,-54 -47,-101 -101,-101l-165 0 0 202z"/>
   </g>
   <g>
    <path class="fil0" d="M1212 1055l-131 0c-14,0 -25,-11 -25,-25l0 -253c0,-14 11,-25 25,-25l131 0c83,0 150,68 150,150 0,85 -67,153 -150,153zm-107 -49l107 0c55,0 101,-46 101,-103 0,-55 -47,-101 -101,-101l-107 0 0 204z"/>
   </g>
  </g>
 </g>
</svg>
