<svg width="68" height="68" viewBox="0 0 68 68" fill="none" xmlns="http://www.w3.org/2000/svg">
<g clip-path="url(#clip0_472_307)">
<path fill-rule="evenodd" clip-rule="evenodd" d="M30.7135 57.563H6.57293C3.22671 57.563 0.517863 54.8542 0.517863 51.5478V6.01527C0.517863 2.66905 3.22671 -0.0397949 6.57293 -0.0397949H30.7135C34.0598 -0.0397949 36.7686 2.66905 36.7686 6.01527V51.5478C36.7686 54.8542 34.0598 57.563 30.7135 57.563ZM6.57293 1.91217C4.30228 1.91217 2.46983 3.74462 2.46983 6.01527V51.5478C2.46983 53.7786 4.30228 55.6111 6.57293 55.6111H30.7135C32.9842 55.6111 34.8166 53.7786 34.8166 51.5478V6.01527C34.8166 3.74462 32.9842 1.91217 30.7135 1.91217H6.57293Z" fill="black"/>
<path fill-rule="evenodd" clip-rule="evenodd" d="M30.7135 57.563H6.57293C3.22671 57.563 0.517863 54.8542 0.517863 51.5478V6.01527C0.517863 2.66905 3.22671 -0.0397949 6.57293 -0.0397949H30.7135C34.0598 -0.0397949 36.7686 2.66905 36.7686 6.01527V51.5478C36.7686 54.8542 34.0598 57.563 30.7135 57.563ZM6.57293 1.91217C4.30228 1.91217 2.46983 3.74462 2.46983 6.01527V51.5478C2.46983 53.7786 4.30228 55.6111 6.57293 55.6111H30.7135C32.9842 55.6111 34.8166 53.7786 34.8166 51.5478V6.01527C34.8166 3.74462 32.9842 1.91217 30.7135 1.91217H6.57293Z" fill="url(#paint0_linear_472_307)"/>
<path fill-rule="evenodd" clip-rule="evenodd" d="M35.7727 9.28182H1.47393C0.916223 9.28182 0.478027 8.80379 0.478027 8.28592C0.478027 7.72822 0.916223 7.29002 1.47393 7.29002H35.7727C36.3304 7.29002 36.7686 7.72822 36.7686 8.28592C36.7686 8.80379 36.3304 9.28182 35.7727 9.28182Z" fill="black"/>
<path fill-rule="evenodd" clip-rule="evenodd" d="M35.7727 9.28182H1.47393C0.916223 9.28182 0.478027 8.80379 0.478027 8.28592C0.478027 7.72822 0.916223 7.29002 1.47393 7.29002H35.7727C36.3304 7.29002 36.7686 7.72822 36.7686 8.28592C36.7686 8.80379 36.3304 9.28182 35.7727 9.28182Z" fill="url(#paint1_linear_472_307)"/>
<path fill-rule="evenodd" clip-rule="evenodd" d="M7.92735 44.0188C7.84768 44.0188 7.6485 44.0188 7.56883 43.9391C7.05096 43.7399 6.85178 43.1822 7.05096 42.6644L17.727 17.727C17.966 17.249 18.5237 17.01 19.0018 17.249C19.5196 17.4482 19.7188 18.0059 19.5196 18.5238L8.80374 43.3814C8.6444 43.7798 8.32571 44.0188 7.92735 44.0188Z" fill="black"/>
<path fill-rule="evenodd" clip-rule="evenodd" d="M7.92735 44.0188C7.84768 44.0188 7.6485 44.0188 7.56883 43.9391C7.05096 43.7399 6.85178 43.1822 7.05096 42.6644L17.727 17.727C17.966 17.249 18.5237 17.01 19.0018 17.249C19.5196 17.4482 19.7188 18.0059 19.5196 18.5238L8.80374 43.3814C8.6444 43.7798 8.32571 44.0188 7.92735 44.0188Z" fill="url(#paint2_linear_472_307)"/>
<path fill-rule="evenodd" clip-rule="evenodd" d="M29.3591 44.0188C28.9607 44.0188 28.6421 43.7798 28.4429 43.3814L17.727 18.4441C17.5278 17.9661 17.727 17.4084 18.2449 17.1693C18.7229 16.9702 19.2806 17.1693 19.5196 17.6872L30.2355 42.6245C30.4347 43.1026 30.2355 43.6603 29.7176 43.8993C29.5583 43.9391 29.4388 44.0188 29.3591 44.0188Z" fill="black"/>
<path fill-rule="evenodd" clip-rule="evenodd" d="M29.3591 44.0188C28.9607 44.0188 28.6421 43.7798 28.4429 43.3814L17.727 18.4441C17.5278 17.9661 17.727 17.4084 18.2449 17.1693C18.7229 16.9702 19.2806 17.1693 19.5196 17.6872L30.2355 42.6245C30.4347 43.1026 30.2355 43.6603 29.7176 43.8993C29.5583 43.9391 29.4388 44.0188 29.3591 44.0188Z" fill="url(#paint3_linear_472_307)"/>
<path fill-rule="evenodd" clip-rule="evenodd" d="M25.4552 34.976H11.7914C11.2736 34.976 10.7955 34.5378 10.7955 33.9801C10.7955 33.4224 11.2736 32.9842 11.7914 32.9842H25.4552C26.0129 32.9842 26.4511 33.4224 26.4511 33.9801C26.4511 34.5378 25.973 34.976 25.4552 34.976Z" fill="black"/>
<path fill-rule="evenodd" clip-rule="evenodd" d="M25.4552 34.976H11.7914C11.2736 34.976 10.7955 34.5378 10.7955 33.9801C10.7955 33.4224 11.2736 32.9842 11.7914 32.9842H25.4552C26.0129 32.9842 26.4511 33.4224 26.4511 33.9801C26.4511 34.5378 25.973 34.976 25.4552 34.976Z" fill="url(#paint4_linear_472_307)"/>
<path fill-rule="evenodd" clip-rule="evenodd" d="M25.2958 53.1811H11.9906C11.4329 53.1811 10.9947 52.7429 10.9947 52.1852C10.9947 51.6275 11.4329 51.1893 11.9906 51.1893H25.2958C25.8535 51.1893 26.2917 51.6275 26.2917 52.1852C26.2917 52.7429 25.8535 53.1811 25.2958 53.1811Z" fill="black"/>
<path fill-rule="evenodd" clip-rule="evenodd" d="M25.2958 53.1811H11.9906C11.4329 53.1811 10.9947 52.7429 10.9947 52.1852C10.9947 51.6275 11.4329 51.1893 11.9906 51.1893H25.2958C25.8535 51.1893 26.2917 51.6275 26.2917 52.1852C26.2917 52.7429 25.8535 53.1811 25.2958 53.1811Z" fill="url(#paint5_linear_472_307)"/>
<path fill-rule="evenodd" clip-rule="evenodd" d="M61.4669 68H37.2466C33.9402 68 31.2712 65.2912 31.2712 62.0246V56.3281C31.2712 55.7704 31.7094 55.3322 32.2671 55.3322C32.8248 55.3322 33.263 55.7704 33.263 56.3281V62.0246C33.263 64.2555 35.1353 66.0879 37.3263 66.0879H61.4669C63.7376 66.0879 65.57 64.2555 65.57 62.0246V16.4523C65.57 14.2613 63.7376 12.4289 61.4669 12.4289H37.2466C36.8881 12.4289 36.4897 12.4687 36.0914 12.5882C35.6134 12.7476 35.0556 12.4687 34.8963 11.9907C34.6971 11.4728 34.976 10.9151 35.4938 10.7558C36.0914 10.5566 36.6491 10.4769 37.2466 10.4769H61.4669C64.8131 10.4769 67.522 13.1857 67.522 16.4523V62.0246C67.4423 65.2912 64.8131 68 61.4669 68Z" fill="black"/>
<path fill-rule="evenodd" clip-rule="evenodd" d="M61.4669 68H37.2466C33.9402 68 31.2712 65.2912 31.2712 62.0246V56.3281C31.2712 55.7704 31.7094 55.3322 32.2671 55.3322C32.8248 55.3322 33.263 55.7704 33.263 56.3281V62.0246C33.263 64.2555 35.1353 66.0879 37.3263 66.0879H61.4669C63.7376 66.0879 65.57 64.2555 65.57 62.0246V16.4523C65.57 14.2613 63.7376 12.4289 61.4669 12.4289H37.2466C36.8881 12.4289 36.4897 12.4687 36.0914 12.5882C35.6134 12.7476 35.0556 12.4687 34.8963 11.9907C34.6971 11.4728 34.976 10.9151 35.4938 10.7558C36.0914 10.5566 36.6491 10.4769 37.2466 10.4769H61.4669C64.8131 10.4769 67.522 13.1857 67.522 16.4523V62.0246C67.4423 65.2912 64.8131 68 61.4669 68Z" fill="url(#paint6_linear_472_307)"/>
<path fill-rule="evenodd" clip-rule="evenodd" d="M66.5261 19.7587H35.7727C35.215 19.7587 34.7768 19.3205 34.7768 18.7628C34.7768 18.2449 35.215 17.7669 35.7727 17.7669H66.5261C67.0838 17.7669 67.522 18.2449 67.522 18.7628C67.522 19.3205 67.0838 19.7587 66.5261 19.7587Z" fill="black"/>
<path fill-rule="evenodd" clip-rule="evenodd" d="M66.5261 19.7587H35.7727C35.215 19.7587 34.7768 19.3205 34.7768 18.7628C34.7768 18.2449 35.215 17.7669 35.7727 17.7669H66.5261C67.0838 17.7669 67.522 18.2449 67.522 18.7628C67.522 19.3205 67.0838 19.7587 66.5261 19.7587Z" fill="url(#paint7_linear_472_307)"/>
<path fill-rule="evenodd" clip-rule="evenodd" d="M56.0492 63.6978H42.6643C42.1066 63.6978 41.6684 63.2596 41.6684 62.7019C41.6684 62.1442 42.1066 61.7458 42.6643 61.7458H56.0492C56.6069 61.7458 57.0451 62.2238 57.0451 62.7417C57.0451 63.2994 56.5671 63.6978 56.0492 63.6978Z" fill="black"/>
<path fill-rule="evenodd" clip-rule="evenodd" d="M56.0492 63.6978H42.6643C42.1066 63.6978 41.6684 63.2596 41.6684 62.7019C41.6684 62.1442 42.1066 61.7458 42.6643 61.7458H56.0492C56.6069 61.7458 57.0451 62.2238 57.0451 62.7417C57.0451 63.2994 56.5671 63.6978 56.0492 63.6978Z" fill="url(#paint8_linear_472_307)"/>
<path fill-rule="evenodd" clip-rule="evenodd" d="M50.6315 52.0258H43.0627C42.505 52.0258 42.0668 51.5876 42.0668 51.0299V41.0311C42.0668 40.4734 42.505 40.0352 43.0627 40.0352H50.6315C53.9777 40.0352 56.6069 42.744 56.6069 46.0106C56.6069 49.3568 53.8981 52.0258 50.6315 52.0258ZM44.0187 50.0739H50.5917C52.7827 50.0739 54.6151 48.2016 54.6151 46.0504C54.6151 43.8993 52.7428 42.027 50.5917 42.027H44.0187V50.0739Z" fill="black"/>
<path fill-rule="evenodd" clip-rule="evenodd" d="M50.6315 52.0258H43.0627C42.505 52.0258 42.0668 51.5876 42.0668 51.0299V41.0311C42.0668 40.4734 42.505 40.0352 43.0627 40.0352H50.6315C53.9777 40.0352 56.6069 42.744 56.6069 46.0106C56.6069 49.3568 53.8981 52.0258 50.6315 52.0258ZM44.0187 50.0739H50.5917C52.7827 50.0739 54.6151 48.2016 54.6151 46.0504C54.6151 43.8993 52.7428 42.027 50.5917 42.027H44.0187V50.0739Z" fill="url(#paint9_linear_472_307)"/>
<path fill-rule="evenodd" clip-rule="evenodd" d="M48.2812 42.027H43.0627C42.505 42.027 42.0668 41.5888 42.0668 41.0311V30.9526C42.0668 30.3949 42.505 29.9567 43.0627 29.9567H48.2812C51.5876 29.9567 54.2566 32.6655 54.2566 35.9321C54.2566 39.3181 51.5876 42.027 48.2812 42.027ZM44.0187 40.075H48.2812C50.4722 40.075 52.3046 38.2426 52.3046 35.9719C52.3046 33.7809 50.4323 31.9485 48.2812 31.9485H44.0187V40.075Z" fill="black"/>
<path fill-rule="evenodd" clip-rule="evenodd" d="M48.2812 42.027H43.0627C42.505 42.027 42.0668 41.5888 42.0668 41.0311V30.9526C42.0668 30.3949 42.505 29.9567 43.0627 29.9567H48.2812C51.5876 29.9567 54.2566 32.6655 54.2566 35.9321C54.2566 39.3181 51.5876 42.027 48.2812 42.027ZM44.0187 40.075H48.2812C50.4722 40.075 52.3046 38.2426 52.3046 35.9719C52.3046 33.7809 50.4323 31.9485 48.2812 31.9485H44.0187V40.075Z" fill="url(#paint10_linear_472_307)"/>
<g opacity="0.15">
<path fill-rule="evenodd" clip-rule="evenodd" d="M36 19H66.5V16.5C66.101 13.326 65.0681 12.195 61.5 11.5H36V19Z" fill="url(#paint11_linear_472_307)"/>
<path d="M36 51.5C34.9847 55.2569 33.6807 56.2218 30.5 56.5H32.5V62C33.3686 65.873 34.5606 66.7933 37.5 67H62.5C64.9342 65.8984 65.7515 64.9908 66.5 63V19H36V51.5Z" fill="url(#paint12_linear_472_307)"/>
</g>
</g>
<defs>
<linearGradient id="paint0_linear_472_307" x1="4.27718" y1="-0.0397941" x2="63.0976" y2="63.9617" gradientUnits="userSpaceOnUse">
<stop offset="0.259336" stop-color="#FF8B6E"/>
<stop offset="1" stop-color="#FF635E"/>
</linearGradient>
<linearGradient id="paint1_linear_472_307" x1="4.27718" y1="-0.0397941" x2="63.0976" y2="63.9617" gradientUnits="userSpaceOnUse">
<stop offset="0.259336" stop-color="#FF8B6E"/>
<stop offset="1" stop-color="#FF635E"/>
</linearGradient>
<linearGradient id="paint2_linear_472_307" x1="4.27718" y1="-0.0397941" x2="63.0976" y2="63.9617" gradientUnits="userSpaceOnUse">
<stop offset="0.259336" stop-color="#FF8B6E"/>
<stop offset="1" stop-color="#FF635E"/>
</linearGradient>
<linearGradient id="paint3_linear_472_307" x1="4.27718" y1="-0.0397941" x2="63.0976" y2="63.9617" gradientUnits="userSpaceOnUse">
<stop offset="0.259336" stop-color="#FF8B6E"/>
<stop offset="1" stop-color="#FF635E"/>
</linearGradient>
<linearGradient id="paint4_linear_472_307" x1="4.27718" y1="-0.0397941" x2="63.0976" y2="63.9617" gradientUnits="userSpaceOnUse">
<stop offset="0.259336" stop-color="#FF8B6E"/>
<stop offset="1" stop-color="#FF635E"/>
</linearGradient>
<linearGradient id="paint5_linear_472_307" x1="4.27718" y1="-0.0397941" x2="63.0976" y2="63.9617" gradientUnits="userSpaceOnUse">
<stop offset="0.259336" stop-color="#FF8B6E"/>
<stop offset="1" stop-color="#FF635E"/>
</linearGradient>
<linearGradient id="paint6_linear_472_307" x1="4.27718" y1="-0.0397941" x2="63.0976" y2="63.9617" gradientUnits="userSpaceOnUse">
<stop offset="0.259336" stop-color="#FF8B6E"/>
<stop offset="1" stop-color="#FF635E"/>
</linearGradient>
<linearGradient id="paint7_linear_472_307" x1="4.27718" y1="-0.0397941" x2="63.0976" y2="63.9617" gradientUnits="userSpaceOnUse">
<stop offset="0.259336" stop-color="#FF8B6E"/>
<stop offset="1" stop-color="#FF635E"/>
</linearGradient>
<linearGradient id="paint8_linear_472_307" x1="4.27718" y1="-0.0397941" x2="63.0976" y2="63.9617" gradientUnits="userSpaceOnUse">
<stop offset="0.259336" stop-color="#FF8B6E"/>
<stop offset="1" stop-color="#FF635E"/>
</linearGradient>
<linearGradient id="paint9_linear_472_307" x1="4.27718" y1="-0.0397941" x2="63.0976" y2="63.9617" gradientUnits="userSpaceOnUse">
<stop offset="0.259336" stop-color="#FF8B6E"/>
<stop offset="1" stop-color="#FF635E"/>
</linearGradient>
<linearGradient id="paint10_linear_472_307" x1="4.27718" y1="-0.0397941" x2="63.0976" y2="63.9617" gradientUnits="userSpaceOnUse">
<stop offset="0.259336" stop-color="#FF8B6E"/>
<stop offset="1" stop-color="#FF635E"/>
</linearGradient>
<linearGradient id="paint11_linear_472_307" x1="3.455" y1="1" x2="48.3875" y2="31.8427" gradientUnits="userSpaceOnUse">
<stop offset="0.259336" stop-color="#FF8B6E"/>
<stop offset="1" stop-color="#FF635E"/>
</linearGradient>
<linearGradient id="paint12_linear_472_307" x1="3.455" y1="1" x2="48.3875" y2="31.8427" gradientUnits="userSpaceOnUse">
<stop offset="0.259336" stop-color="#FF8B6E"/>
<stop offset="1" stop-color="#FF635E"/>
</linearGradient>
<clipPath id="clip0_472_307">
<rect width="68" height="68" fill="white"/>
</clipPath>
</defs>
</svg>
