<svg width="67" height="67" viewBox="0 0 67 67" fill="none" xmlns="http://www.w3.org/2000/svg">
<path opacity="0.15" d="M42.2289 1.90967H1.90967V65.5061H51.3735V41.3976L40.1506 52.6205H33.0844V45.5542L51.3735 27.2651V11.0542L42.2289 1.90967Z" fill="url(#paint0_linear_471_155)" stroke="black"/>
<path d="M40.4944 18.3199H12.1344C11.5821 18.3199 11.1344 18.7677 11.1344 19.3199V20.0799C11.1344 20.6322 11.5821 21.0799 12.1344 21.0799H40.4944C41.0467 21.0799 41.4944 20.6322 41.4944 20.0799V19.3199C41.4944 18.7677 41.0467 18.3199 40.4944 18.3199Z" fill="url(#paint1_linear_471_155)"/>
<path d="M40.4944 26.6H12.1344C11.5821 26.6 11.1344 27.0477 11.1344 27.6V28.36C11.1344 28.9123 11.5821 29.36 12.1344 29.36H40.4944C41.0467 29.36 41.4944 28.9123 41.4944 28.36V27.6C41.4944 27.0477 41.0467 26.6 40.4944 26.6Z" fill="url(#paint2_linear_471_155)"/>
<path d="M33.5944 34.88H12.1344C11.5821 34.88 11.1344 35.3277 11.1344 35.88V36.64C11.1344 37.1923 11.5821 37.64 12.1344 37.64H33.5944C34.1467 37.64 34.5944 37.1923 34.5944 36.64V35.88C34.5944 35.3277 34.1467 34.88 33.5944 34.88Z" fill="url(#paint3_linear_471_155)"/>
<path d="M26.6944 43.1599H12.1344C11.5821 43.1599 11.1344 43.6076 11.1344 44.1599V44.9199C11.1344 45.4722 11.5821 45.9199 12.1344 45.9199H26.6944C27.2467 45.9199 27.6944 45.4722 27.6944 44.9199V44.1599C27.6944 43.6076 27.2467 43.1599 26.6944 43.1599Z" fill="url(#paint4_linear_471_155)"/>
<path d="M26.6944 51.4401H12.1344C11.5821 51.4401 11.1344 51.8878 11.1344 52.4401V53.2001C11.1344 53.7523 11.5821 54.2001 12.1344 54.2001H26.6944C27.2467 54.2001 27.6944 53.7523 27.6944 53.2001V52.4401C27.6944 51.8878 27.2467 51.4401 26.6944 51.4401Z" fill="url(#paint5_linear_471_155)"/>
<path d="M52.5344 24.6487V12.0913C52.5344 11.2957 52.2183 10.5326 51.6557 9.97001L42.9444 1.25868C42.3817 0.696075 41.6187 0.380005 40.823 0.380005H3.09436C1.43751 0.380005 0.0943604 1.72315 0.0943604 3.38V63.62C0.0943604 65.2769 1.43751 66.62 3.09436 66.62H49.5344C51.1912 66.62 52.5344 65.2769 52.5344 63.62V42.3513L64.7844 30.1013C65.9559 28.9298 65.9559 27.0303 64.7844 25.8587L60.1757 21.25C59.0041 20.0784 57.1046 20.0784 55.933 21.25L52.5344 24.6487ZM50.4472 30.6384C50.8378 30.2479 51.4709 30.2479 51.8615 30.6384L55.3959 34.1729C55.7865 34.5634 55.7865 35.1966 55.3959 35.5871L40.4217 50.5613C39.8591 51.1239 39.096 51.44 38.3004 51.44H35.5944C35.0421 51.44 34.5944 50.9923 34.5944 50.44V47.734C34.5944 46.9383 34.9104 46.1753 35.473 45.6126L50.4472 30.6384ZM42.8744 5.09133L47.823 10.04H44.8744C43.7698 10.04 42.8744 9.14458 42.8744 8.04001V5.09133ZM49.7744 60.86C49.7744 62.5169 48.4312 63.86 46.7744 63.86H5.85436C4.1975 63.86 2.85436 62.5169 2.85436 60.86V6.14001C2.85436 4.48315 4.19751 3.14001 5.85436 3.14001H40.1144V9.80001C40.1144 11.4569 41.4575 12.8 43.1144 12.8H49.7744V27.4087L32.713 44.47C32.1504 45.0326 31.8344 45.7957 31.8344 46.5913V53.2C31.8344 53.7523 32.2821 54.2 32.8344 54.2H39.443C40.2387 54.2 41.0018 53.8839 41.5644 53.3213L49.7744 45.1113V60.86ZM58.7615 32.2216C58.3709 32.6121 57.7378 32.6121 57.3472 32.2216L53.8128 28.6871C53.4223 28.2966 53.4223 27.6634 53.8128 27.2729L57.3472 23.7384C57.7378 23.3479 58.3709 23.3479 58.7615 23.7384L62.2959 27.2729C62.6865 27.6634 62.6865 28.2966 62.2959 28.6871L58.7615 32.2216Z" fill="url(#paint6_linear_471_155)"/>
<defs>
<linearGradient id="paint0_linear_471_155" x1="4.71262" y1="1.90967" x2="59.2551" y2="48.754" gradientUnits="userSpaceOnUse">
<stop offset="0.259336" stop-color="#FF8B6E"/>
<stop offset="1" stop-color="#FF635E"/>
</linearGradient>
<linearGradient id="paint1_linear_471_155" x1="12.8548" y1="18.3199" x2="13.2464" y2="23.0768" gradientUnits="userSpaceOnUse">
<stop offset="0.259336" stop-color="#FF8B6E"/>
<stop offset="1" stop-color="#FF635E"/>
</linearGradient>
<linearGradient id="paint2_linear_471_155" x1="12.8548" y1="26.6" x2="13.2464" y2="31.3568" gradientUnits="userSpaceOnUse">
<stop offset="0.259336" stop-color="#FF8B6E"/>
<stop offset="1" stop-color="#FF635E"/>
</linearGradient>
<linearGradient id="paint3_linear_471_155" x1="12.4638" y1="34.88" x2="12.9683" y2="39.6153" gradientUnits="userSpaceOnUse">
<stop offset="0.259336" stop-color="#FF8B6E"/>
<stop offset="1" stop-color="#FF635E"/>
</linearGradient>
<linearGradient id="paint4_linear_471_155" x1="12.0728" y1="43.1599" x2="12.7795" y2="47.8423" gradientUnits="userSpaceOnUse">
<stop offset="0.259336" stop-color="#FF8B6E"/>
<stop offset="1" stop-color="#FF635E"/>
</linearGradient>
<linearGradient id="paint5_linear_471_155" x1="12.0728" y1="51.4401" x2="12.7795" y2="56.1224" gradientUnits="userSpaceOnUse">
<stop offset="0.259336" stop-color="#FF8B6E"/>
<stop offset="1" stop-color="#FF635E"/>
</linearGradient>
<linearGradient id="paint6_linear_471_155" x1="3.88033" y1="0.380006" x2="61.0169" y2="64.0171" gradientUnits="userSpaceOnUse">
<stop offset="0.259336" stop-color="#FF8B6E"/>
<stop offset="1" stop-color="#FF635E"/>
</linearGradient>
</defs>
</svg>
