<svg width="74" height="68" viewBox="0 0 74 68" fill="none" xmlns="http://www.w3.org/2000/svg">
<path opacity="0.15" fill-rule="evenodd" clip-rule="evenodd" d="M1 66H73V10H1V66ZM7 17H19V29H7V17ZM19 42H7V54H19V42ZM41 31L29.5 34L32.5 46L44.5 42.5L41 31ZM67.5 24H55V36.5H67.5V24Z" fill="url(#paint0_linear_472_281)"/>
<path d="M1 10.1652H25M1 10.1652V66.634H25M1 10.1652V1.27673H25M25 10.1652V66.634M25 10.1652V1.27673M25 10.1652H49.0001M25 66.634H49.0001M25 1.27673H49.0001M49.0001 10.1652V66.634M49.0001 10.1652V1.27673M49.0001 10.1652H73M49.0001 66.634H73V10.1652M49.0001 1.27673H73V10.1652M6.22614 5.71573H19.774M30.2261 5.71573H43.774M54.2261 5.71573H67.774M10.7804 23.3143L12.1027 24.6261L15.2194 21.5093M10.7804 48.6786L12.1027 49.9904L15.2194 46.8736M58.7806 30.188L60.1029 31.4998L63.2196 28.383M33.962 37.0406L38.9572 35.6973M35.0428 41.0914L40.038 39.7481M6.58287 16.6506H19.4067V29.4744H6.58287V16.6506ZM6.58287 42.0148H19.4067V54.8386H6.58287V42.0148ZM54.583 23.5243H67.4068V36.3481H54.583V23.5243ZM29.1462 33.8609L41.533 30.5419L44.8521 42.9287L32.4652 46.2478L29.1462 33.8609Z" stroke="url(#paint1_linear_472_281)" stroke-width="2" stroke-linecap="round" stroke-linejoin="round"/>
<defs>
<linearGradient id="paint0_linear_472_281" x1="5.07999" y1="1" x2="60.3477" y2="68.6015" gradientUnits="userSpaceOnUse">
<stop offset="0.259336" stop-color="#FF8B6E"/>
<stop offset="1" stop-color="#FF635E"/>
</linearGradient>
<linearGradient id="paint1_linear_472_281" x1="7.5" y1="1.5" x2="73" y2="67" gradientUnits="userSpaceOnUse">
<stop offset="0.26" stop-color="#FF8B6E"/>
<stop offset="1" stop-color="#FF635E"/>
</linearGradient>
</defs>
</svg>
