<svg width="62" height="62" viewBox="0 0 62 62" fill="none" xmlns="http://www.w3.org/2000/svg">
<path d="M56.7264 0.375H5.60859C2.81543 0.375 0.375 2.38477 0.375 5.14512V56.3764C0.375 59.1518 2.81543 61.625 5.60859 61.625H56.7113C59.5195 61.625 61.625 59.1353 61.625 56.3764V5.14512C61.6414 2.38477 59.5195 0.375 56.7264 0.375ZM19.3611 51.4299H10.5865V24.1477H19.3611V51.4299ZM15.2773 19.9996H15.2145C12.4062 19.9996 10.5879 17.9092 10.5879 15.2924C10.5879 12.6277 12.4541 10.5865 15.3252 10.5865C18.1963 10.5865 19.9531 12.6127 20.016 15.2924C20.0146 17.9092 18.1963 19.9996 15.2773 19.9996ZM51.4299 51.4299H42.6553V36.5125C42.6553 32.9387 41.3783 30.4969 38.2037 30.4969C35.7783 30.4969 34.3428 32.1375 33.7043 33.7357C33.465 34.31 33.4008 35.092 33.4008 35.8904V51.4299H24.6262V24.1477H33.4008V27.9443C34.6777 26.126 36.6725 23.5092 41.3141 23.5092C47.074 23.5092 51.4313 27.3059 51.4313 35.4912L51.4299 51.4299Z" fill="#D6D6D6" fill-opacity="0.7"/>
</svg>
