<svg width="30" height="30" viewBox="0 0 30 30" fill="none" xmlns="http://www.w3.org/2000/svg">
<g clip-path="url(#clip0_540_7)">
<path fill-rule="evenodd" clip-rule="evenodd" d="M4.716 28.2178L1.27664 23.9331C0.44913 22.9023 0 21.6346 0 20.3299V4.81499C0 2.86064 1.56359 1.23897 3.58071 1.10125L19.5321 0.0121821C20.691 -0.0669359 21.8428 0.241092 22.7948 0.884702L28.3992 4.67391C29.4025 5.35219 30 6.46099 30 7.64426V25.2832C30 27.1958 28.4626 28.7793 26.4876 28.9009L8.78333 29.9907C7.20733 30.0877 5.68399 29.4237 4.716 28.2178Z" fill="white"/>
<path d="M10.2481 12.5787V12.3756C10.2481 11.8607 10.6605 11.4337 11.192 11.3982L15.0633 11.1397L20.417 19.0235V12.1041L19.039 11.9204V11.824C19.039 11.303 19.4608 10.8732 19.9991 10.8456L23.5216 10.6652V11.1721C23.5216 11.41 23.3446 11.6136 23.1021 11.6546L22.2544 11.798V23.0037L21.1906 23.3695C20.3018 23.6752 19.3124 23.348 18.8036 22.5803L13.6061 14.7372V22.223L15.2058 22.5291L15.1836 22.6775C15.1137 23.1423 14.7124 23.4939 14.227 23.5155L10.2481 23.6926C10.1955 23.1927 10.5701 22.7456 11.0869 22.6913L11.6103 22.6363V12.6552L10.2481 12.5787Z" fill="black"/>
<path fill-rule="evenodd" clip-rule="evenodd" d="M19.6749 1.96678L3.72347 3.05585C2.76799 3.12109 2.02734 3.88925 2.02734 4.81499V20.3299C2.02734 21.1997 2.32676 22.0448 2.87843 22.7321L6.3178 27.0167C6.87388 27.7094 7.74899 28.0909 8.65435 28.0352L26.3586 26.9454C27.266 26.8895 27.9724 26.1619 27.9724 25.2832V7.64426C27.9724 7.10059 27.6979 6.59115 27.2369 6.27951L21.6325 2.49029C21.0613 2.10413 20.3702 1.91931 19.6749 1.96678ZM4.51447 5.057C4.29261 4.89274 4.3982 4.55055 4.6769 4.53056L19.7822 3.44711C20.2635 3.41259 20.7417 3.54512 21.1309 3.82088L24.1617 5.96813C24.2767 6.04965 24.2228 6.22563 24.0803 6.23338L8.08387 7.10336C7.59977 7.12969 7.12193 6.98747 6.73701 6.7025L4.51447 5.057ZM7.33357 9.8307C7.33357 9.311 7.75341 8.88177 8.29027 8.85253L25.203 7.93145C25.7263 7.90296 26.1667 8.30534 26.1667 8.81182V24.0853C26.1667 24.604 25.7484 25.0328 25.2126 25.0633L8.40688 26.0195C7.8246 26.0527 7.33357 25.6052 7.33357 25.0415V9.8307Z" fill="black"/>
</g>
<defs>
<clipPath id="clip0_540_7">
<rect width="30" height="30" fill="white"/>
</clipPath>
</defs>
</svg>
