<svg width="79" height="79" viewBox="0 0 79 79" fill="none" xmlns="http://www.w3.org/2000/svg">
<g clip-path="url(#clip0_456_112)">
<path fill-rule="evenodd" clip-rule="evenodd" d="M78.3197 29.8984L67.8508 2.68833C67.5375 1.87389 66.9255 1.23015 66.1279 0.875619C65.3303 0.521248 64.4425 0.498715 63.628 0.812072L36.418 11.2808C36.097 11.4043 35.8381 11.6502 35.6985 11.9647C35.559 12.2789 35.5499 12.636 35.6734 12.957L39.3988 22.6399C39.49 22.8768 39.647 23.0755 39.8443 23.2198C38.8871 22.8251 37.8535 22.6249 36.7908 22.6412C35.9351 22.6537 35.1012 22.8033 34.3123 23.0822V14.8593C34.3123 14.1431 33.7317 13.5625 33.0155 13.5625H17H11H3.86123C2.05954 13.5625 0.59375 15.0283 0.59375 16.8299V75.1387C0.59375 76.9404 2.05954 78.4062 3.86123 78.4062H10H16H62.17C63.9717 78.4062 65.4375 76.9404 65.4375 75.1387V69V63V47.2272C65.8899 47.141 66.3379 47.0144 66.7764 46.8456C70.7805 45.3048 72.7848 40.7936 71.2443 36.7893C70.9223 35.9527 70.4687 35.1916 69.901 34.5271L77.5751 31.5746C78.2435 31.3172 78.577 30.5669 78.3197 29.8984ZM3.86123 16.1562C3.48967 16.1562 3.1875 16.4584 3.1875 16.8299V44.6875H10.1131C9.82183 43.8635 9.67188 42.9903 9.67188 42.0937C9.67188 37.8033 13.1624 34.3126 17.4526 34.3125C19.5401 34.3123 21.5049 35.1392 22.9848 36.6408C24.4653 38.1431 25.2639 40.1205 25.2334 42.209C25.2211 43.0647 25.0713 43.8988 24.7926 44.6875H31.7188V35.6093C31.7188 35.118 31.9964 34.6686 32.4361 34.4491C32.8759 34.2299 33.4018 34.2776 33.7946 34.5725C34.6975 35.2507 35.7736 35.6093 36.9062 35.6093C39.7665 35.6093 42.0936 33.2824 42.0938 30.422C42.0938 29.0345 41.5414 27.726 40.5383 26.7373C39.5347 25.7481 38.2166 25.2178 36.8288 25.2347C35.7248 25.2509 34.6756 25.6091 33.7946 26.2712C33.4018 26.5664 32.8757 26.614 32.4361 26.3946C31.9964 26.1751 31.7188 25.7257 31.7188 25.2343V16.1562H17H11H3.86123ZM53.7651 49.7975C53.7489 48.6935 53.3907 47.6445 52.7288 46.7633C52.4337 46.3703 52.3857 45.8444 52.6054 45.4048C52.8251 44.9652 53.2743 44.6875 53.7656 44.6875H58.1134C57.4984 43.9844 57.0104 43.1701 56.6791 42.2698C56.3834 41.4665 56.2235 40.6344 56.2005 39.7982L48.5259 42.7511C48.2051 42.8744 47.848 42.8655 47.5337 42.7258C47.2193 42.586 46.9734 42.3271 46.8499 42.0063L43.788 34.0479C42.482 36.5165 39.8879 38.2031 36.9062 38.2031C36.0096 38.2031 35.1365 38.0531 34.3125 37.7618V44.6875H43.3906C43.882 44.6875 44.331 44.9652 44.5507 45.4048C44.7703 45.8444 44.7225 46.3703 44.4275 46.7633C43.749 47.6662 43.3906 48.7423 43.3906 49.875C43.3906 52.7354 45.7175 55.0623 48.578 55.0626C49.9655 55.0626 51.2738 54.5103 52.2625 53.5072C53.2517 52.5034 53.7854 51.1859 53.7651 49.7975ZM44.6828 30.6086C44.6851 30.6092 44.6872 30.6094 44.6894 30.61C45.7757 30.9187 46.9087 30.867 47.9658 30.4601C50.6355 29.433 51.9717 26.4257 50.9448 23.7561C50.4464 22.461 49.4611 21.4381 48.1699 20.8755C46.8781 20.3127 45.4569 20.2876 44.1683 20.8053C43.1437 21.2169 42.2931 21.928 41.7086 22.862C41.4477 23.2786 40.9747 23.5134 40.485 23.4649C40.4299 23.4597 40.376 23.4498 40.3229 23.4378C41.0631 23.8042 41.7506 24.2902 42.359 24.8899C43.8606 26.3697 44.6875 28.3345 44.6875 30.422C44.6875 30.4245 44.6875 30.427 44.6875 30.4296C44.6873 30.4673 44.6861 30.5049 44.6848 30.5424L44.6837 30.5748L44.6828 30.6086ZM3.1875 75.1387C3.1875 75.5103 3.48967 75.8125 3.86123 75.8125H10H16H31.7188V68.8868C30.8947 69.1781 30.0216 69.3281 29.125 69.3281C24.8346 69.3281 21.3439 65.8377 21.3438 61.5472C21.3438 59.4597 22.1707 57.4949 23.6721 56.015C25.1744 54.5345 27.1559 53.7298 29.2403 53.7664C30.096 53.7789 30.9301 53.9285 31.7188 54.2073V47.2812H22.6406C22.1493 47.2812 21.7002 47.0037 21.4806 46.564C21.2609 46.1244 21.3087 45.5985 21.6038 45.2056C22.2657 44.3243 22.6239 43.2753 22.6401 42.1714C22.6604 40.7827 22.1267 39.4653 21.1375 38.4617C20.149 37.4585 18.8405 36.9062 17.453 36.9062C14.5925 36.9064 12.2656 39.2333 12.2656 42.0937C12.2656 43.2264 12.6242 44.3025 13.3026 45.2054C13.5977 45.5984 13.6455 46.1242 13.4258 46.5639C13.2062 47.0035 12.757 47.2812 12.2656 47.2812H3.1875V75.1387ZM62.17 75.8125C62.5416 75.8125 62.8438 75.5103 62.8438 75.1387V69V63V47.2814H55.9178C56.1965 48.07 56.3461 48.9041 56.3586 49.7599C56.389 51.8483 55.5905 53.8257 54.1099 55.328C52.63 56.8295 50.6651 57.6564 48.5778 57.6564C44.2874 57.6562 40.7969 54.1655 40.7969 49.8751C40.7969 48.9785 40.9468 48.1054 41.2381 47.2814H34.3125V56.3595C34.3125 56.8509 34.0348 57.3002 33.5952 57.5197C33.1554 57.739 32.6295 57.6912 32.2367 57.3964C31.3556 56.7343 30.3065 56.376 29.2025 56.3598C27.8106 56.3449 26.4966 56.8732 25.4929 57.8624C24.4898 58.851 23.9375 60.1595 23.9375 61.5472C23.9377 64.4074 26.2647 66.7343 29.125 66.7343C30.2577 66.7343 31.3337 66.3758 32.2367 65.6975C32.6296 65.4023 33.1557 65.3549 33.5952 65.5741C34.0348 65.7936 34.3125 66.243 34.3125 66.7343V75.8125H62.17ZM66.1354 33.9652C66.1825 33.4761 66.5021 33.0556 66.9607 32.8791L75.4328 29.6192L65.4297 3.61964C65.365 3.4517 65.2391 3.31893 65.0745 3.24582C64.9102 3.17271 64.727 3.16849 64.559 3.23285L38.5594 13.2358L41.0465 19.6999C41.6825 19.1567 42.4071 18.7175 43.2013 18.3987C45.1395 17.6204 47.2718 17.6556 49.2055 18.4979C51.1385 19.3399 52.6156 20.8765 53.3652 22.8249C54.9057 26.829 52.9013 31.3402 48.897 32.8809C48.0603 33.2027 47.1914 33.3764 46.3178 33.4004L48.8046 39.8642L57.2772 36.6044C57.4285 36.5463 57.5862 36.518 57.7427 36.518C58.061 36.518 58.3744 36.6352 58.6176 36.8574C58.9804 37.1888 59.1248 37.6968 58.9904 38.1695C58.6891 39.2296 58.7314 40.3374 59.1128 41.3736C59.5925 42.6768 60.5637 43.7146 61.8471 44.2961C63.13 44.8775 64.5496 44.923 65.8447 44.4247C68.5142 43.3977 69.8503 40.3901 68.8233 37.7206C68.4166 36.6635 67.6955 35.788 66.7383 35.1888C66.3216 34.928 66.0882 34.4543 66.1354 33.9652Z" fill="url(#paint0_linear_456_112)"/>
<path opacity="0.15" d="M64 46V77H2V15H33V24.5C45.4967 22.7309 48.6344 37.5806 33 36.5V46H42C39.2302 61.2899 58.419 58.0107 55 46H64Z" fill="url(#paint1_linear_456_112)"/>
</g>
<defs>
<linearGradient id="paint0_linear_456_112" x1="5.00314" y1="0.592408" x2="72.1825" y2="74.774" gradientUnits="userSpaceOnUse">
<stop offset="0.259336" stop-color="#FF8B6E"/>
<stop offset="1" stop-color="#FF635E"/>
</linearGradient>
<linearGradient id="paint1_linear_456_112" x1="5.51333" y1="15" x2="59.04" y2="74.1066" gradientUnits="userSpaceOnUse">
<stop offset="0.259336" stop-color="#FF8B6E"/>
<stop offset="1" stop-color="#FF635E"/>
</linearGradient>
<clipPath id="clip0_456_112">
<rect width="79" height="79" fill="white"/>
</clipPath>
</defs>
</svg>
