<svg width="181" height="180" viewBox="0 0 181 180" fill="none" xmlns="http://www.w3.org/2000/svg">
<path d="M127.041 53.9262C127.076 53.9262 127.124 53.9262 127.172 53.9262C128.419 53.9262 129.577 54.3142 130.526 54.9827L130.508 54.9707C131.201 55.5736 131.666 56.4211 131.78 57.3761V57.394C131.899 58.1222 131.965 58.9579 131.965 59.8114C131.965 60.1994 131.953 60.5814 131.923 60.9634V60.9096C130.58 75.0496 124.755 109.34 121.794 125.169C120.541 131.872 118.076 134.116 115.688 134.331C110.501 134.815 106.562 130.905 101.536 127.61C93.6693 122.447 89.2226 119.236 81.5886 114.205C72.7608 108.397 78.4848 105.192 83.5105 99.9751C84.8296 98.6023 107.696 77.8012 108.144 75.9151C108.167 75.8017 108.179 75.6763 108.179 75.545C108.179 75.0794 108.006 74.6557 107.726 74.3334C107.415 74.1304 107.027 74.017 106.621 74.017C106.353 74.017 106.096 74.0707 105.857 74.1603L105.869 74.1543C105.082 74.3334 92.5153 82.6379 68.1708 99.0679C65.5147 101.163 62.1603 102.488 58.5074 102.643H58.4716C53.2967 102.016 48.5993 100.864 44.1406 99.223L44.5823 99.3663C38.9836 97.5399 34.5369 96.5789 34.9189 93.4871C35.1218 91.8795 37.3382 90.2341 41.5681 88.5509C67.6237 77.1984 84.9987 69.7155 93.6932 66.1024C103.285 61.0111 114.405 56.821 126.098 54.1053L127.035 53.9202L127.041 53.9262ZM90.0821 0.11792C40.5295 0.237295 0.401611 40.4368 0.401611 90.0073C0.401611 139.649 40.6429 179.897 90.291 179.897C139.939 179.897 180.18 139.655 180.18 90.0073C180.18 40.4368 140.052 0.237295 90.5118 0.11792H90.4999C90.3606 0.11792 90.2214 0.11792 90.0821 0.11792Z" fill="#9F9F9F"/>
</svg>
